<?xml version="1.0" encoding="UTF-8"?>
<svg id="Layer_2" data-name="Layer 2" xmlns="http://www.w3.org/2000/svg" viewBox="0 0 829 196.79">
  <g id="Layer_1-2" data-name="Layer 1">
    <path d="M45.46,156.88v-40.14c-17.69,10.86-32.89,23.1-45.46,36.59v43.47h140.8v-39.91H45.46ZM45.46,0H0v86.01c13.77-10,28.94-19.12,45.46-27.3V0ZM167.68,75.04v121.74h45.46v-122.35c-6.84-.42-13.72-.62-20.65-.62-8.27,0-16.54.39-24.81,1.22ZM167.68,0v24.02c8.25-.69,16.51-1.02,24.81-1.02,6.91,0,13.79.18,20.65.53V0h-45.46ZM295.39,90.01l85.99,106.78h36.59v-63.01c-10.39-3.79-20.76-7.69-31.09-11.71-30.3-11.73-61.07-22.52-91.49-32.06ZM372.51,0v62.45c10.95,3.95,21.87,8.04,32.73,12.24,4.23,1.64,8.48,3.28,12.73,4.87V0h-45.46ZM314.77,42.85L280.77,0h-35.48v26.58c20.16,2.73,39.91,7.07,59.06,12.98,3.46,1.06,6.95,2.17,10.42,3.28ZM245.29,77.95v118.83h45.46v-108.23c-.46-.16-.92-.3-1.39-.44-14.32-4.41-29.03-7.81-44.07-10.16ZM574.01,173.11v23.67h45.46v-23.63c-7.55.42-15.15.62-22.77.62s-15.15-.23-22.68-.67ZM574.01,0v76.22h-78.44V0h-45.46v91.35c17.35,6.14,34.74,11.94,52.01,17.35,9.33,2.93,18.82,5.4,28.43,7.44h43.45v6.03c7.51.55,15.08.81,22.68.81s15.24-.23,22.77-.69V0h-45.46ZM450.12,145.12v51.67h45.46v-37.05c-2.89-.81-5.75-1.66-8.62-2.56-12.24-3.83-24.53-7.85-36.84-12.06ZM799.16,114.98c-22.27,16.05-46.59,28.69-72.66,37.74h40.7l15.24,44.07h46.56l-29.84-81.81ZM748.41,87.24c11.39-6.47,22.24-13.9,32.5-22.31L757.21,0h-41.02l-41.81,114.58c10.14-2.22,20.14-4.92,29.96-8.04,5.34-1.71,10.58-3.6,15.75-5.68l16.61-49.04,11.71,35.41ZM644.41,196.79h46.56l12.56-37.07c-16.08,4.41-32.54,7.76-49.29,10.09l-9.84,26.98Z"/>
  </g>
</svg>